<svg xmlns="http://www.w3.org/2000/svg" viewBox="0 0 360 360" fill="none">
<rect width="360" height="360" rx="28" fill="#FFFFFF"/>
<rect x="18" y="18" width="324" height="324" rx="18" fill="#0F172A" fill-opacity="0.04"/>
<g fill="#111827">
<rect x="40" y="40" width="80" height="80" rx="10"/>
<rect x="56" y="56" width="48" height="48" rx="8" fill="#fff"/>
<rect x="240" y="40" width="80" height="80" rx="10"/>
<rect x="256" y="56" width="48" height="48" rx="8" fill="#fff"/>
<rect x="40" y="240" width="80" height="80" rx="10"/>
<rect x="56" y="256" width="48" height="48" rx="8" fill="#fff"/>
<rect x="156" y="48" width="18" height="18" rx="4"/>
<rect x="188" y="48" width="18" height="18" rx="4"/>
<rect x="156" y="80" width="18" height="18" rx="4"/>
<rect x="188" y="80" width="18" height="18" rx="4"/>
<rect x="156" y="112" width="18" height="18" rx="4"/>
<rect x="188" y="112" width="18" height="18" rx="4"/>
<rect x="140" y="156" width="18" height="18" rx="4"/>
<rect x="172" y="156" width="18" height="18" rx="4"/>
<rect x="204" y="156" width="18" height="18" rx="4"/>
<rect x="236" y="156" width="18" height="18" rx="4"/>
<rect x="268" y="156" width="18" height="18" rx="4"/>
<rect x="140" y="188" width="18" height="18" rx="4"/>
<rect x="204" y="188" width="18" height="18" rx="4"/>
<rect x="236" y="188" width="18" height="18" rx="4"/>
<rect x="268" y="188" width="18" height="18" rx="4"/>
<rect x="140" y="220" width="18" height="18" rx="4"/>
<rect x="172" y="220" width="18" height="18" rx="4"/>
<rect x="236" y="220" width="18" height="18" rx="4"/>
<rect x="268" y="220" width="18" height="18" rx="4"/>
<rect x="156" y="252" width="18" height="18" rx="4"/>
<rect x="188" y="252" width="18" height="18" rx="4"/>
<rect x="220" y="252" width="18" height="18" rx="4"/>
<rect x="252" y="252" width="18" height="18" rx="4"/>
<rect x="284" y="252" width="18" height="18" rx="4"/>
<rect x="140" y="284" width="18" height="18" rx="4"/>
<rect x="204" y="284" width="18" height="18" rx="4"/>
<rect x="268" y="284" width="18" height="18" rx="4"/>
</g>
<text x="180" y="342" text-anchor="middle" fill="#6B7280" font-size="16" font-family="Arial, Helvetica, sans-serif">Demo GCash QR</text>
</svg>