<svg xmlns="http://www.w3.org/2000/svg" viewBox="0 0 900 720" fill="none">
<rect width="900" height="720" rx="40" fill="#1A120F"/>
<circle cx="260" cy="160" r="170" fill="#5A3B2E" fill-opacity="0.5"/>
<circle cx="740" cy="610" r="220" fill="#B48762" fill-opacity="0.22"/>
<rect x="110" y="120" width="680" height="500" rx="36" fill="#2A1A14" stroke="#DCC2AB" stroke-opacity="0.18"/>
<ellipse cx="450" cy="505" rx="210" ry="34" fill="#000" fill-opacity="0.25"/>
<path d="M275 248C275 204.922 309.922 170 353 170H517C560.078 170 595 204.922 595 248V435C595 490.228 550.228 535 495 535H375C319.772 535 275 490.228 275 435V248Z" fill="#E6D3C2"/>
<path d="M318 228C318 206.461 335.461 189 357 189H513C534.539 189 552 206.461 552 228V423C552 467.183 516.183 503 472 503H398C353.817 503 318 467.183 318 423V228Z" fill="#5A3B2E"/>
<path d="M331 232C331 217.641 342.641 206 357 206H513C527.359 206 539 217.641 539 232V418C539 455.003 509.003 485 472 485H398C360.997 485 331 455.003 331 418V232Z" fill="#7A533D"/>
<ellipse cx="435" cy="234" rx="104" ry="30" fill="#F4E7DA"/>
<ellipse cx="435" cy="239" rx="86" ry="20" fill="#C18C5D"/>
<path d="M594 252H647C688.421 252 722 285.579 722 327C722 368.421 688.421 402 647 402H596" stroke="#E6D3C2" stroke-width="22" stroke-linecap="round"/>
<path d="M386 107C370 143 370 168 386 194" stroke="#F4E7DA" stroke-width="14" stroke-linecap="round" stroke-opacity="0.8"/>
<path d="M451 89C435 132 435 165 451 201" stroke="#F4E7DA" stroke-width="14" stroke-linecap="round" stroke-opacity="0.8"/>
<path d="M516 107C500 143 500 168 516 194" stroke="#F4E7DA" stroke-width="14" stroke-linecap="round" stroke-opacity="0.8"/>
<text x="450" y="610" text-anchor="middle" fill="#E6D3C2" font-size="34" font-family="Arial, Helvetica, sans-serif" letter-spacing="8">BREW RESERVE</text>
</svg>