<svg xmlns="http://www.w3.org/2000/svg" viewBox="0 0 900 620" fill="none">
<rect width="900" height="620" rx="32" fill="#F7EFE7"/>
<rect x="44" y="42" width="812" height="536" rx="26" fill="#fff" stroke="#D6B394" stroke-width="2"/>
<rect x="84" y="88" width="260" height="54" rx="16" fill="#0F6EFF" fill-opacity="0.14"/>
<text x="112" y="122" fill="#0F6EFF" font-size="24" font-family="Arial, Helvetica, sans-serif" font-weight="700">GCash Payment Received</text>
<text x="84" y="184" fill="#2A1A14" font-size="22" font-family="Arial, Helvetica, sans-serif">From: Alyssa C.</text>
<text x="84" y="222" fill="#5A3B2E" font-size="20" font-family="Arial, Helvetica, sans-serif">Amount: PHP 600</text>
<text x="84" y="260" fill="#5A3B2E" font-size="20" font-family="Arial, Helvetica, sans-serif">Ref No: 8391 2214 6602</text>
<text x="84" y="298" fill="#5A3B2E" font-size="20" font-family="Arial, Helvetica, sans-serif">March 28, 2026 • 10:11 AM</text>
<rect x="590" y="120" width="180" height="180" rx="18" fill="#0F172A" fill-opacity="0.05"/>
<g fill="#111827">
<rect x="614" y="144" width="50" height="50" rx="8"/><rect x="696" y="144" width="50" height="50" rx="8"/><rect x="614" y="226" width="50" height="50" rx="8"/>
<rect x="676" y="164" width="14" height="14" rx="3"/><rect x="676" y="190" width="14" height="14" rx="3"/><rect x="702" y="216" width="14" height="14" rx="3"/><rect x="728" y="216" width="14" height="14" rx="3"/><rect x="676" y="242" width="14" height="14" rx="3"/><rect x="702" y="242" width="14" height="14" rx="3"/><rect x="728" y="242" width="14" height="14" rx="3"/>
</g>
<text x="680" y="332" text-anchor="middle" fill="#6B7280" font-size="18" font-family="Arial, Helvetica, sans-serif">Receipt preview</text>
<rect x="84" y="370" width="686" height="120" rx="22" fill="#F7EFE7"/>
<text x="112" y="418" fill="#2A1A14" font-size="20" font-family="Arial, Helvetica, sans-serif" font-weight="700">Notes</text>
<text x="112" y="456" fill="#5A3B2E" font-size="18" font-family="Arial, Helvetica, sans-serif">Paid in full via GCash. Frontend proof preview is ready for future backend file storage integration.</text>
</svg>